<svg width="78" height="78" viewBox="0 0 78 78" fill="none" xmlns="http://www.w3.org/2000/svg">
<rect x="1" y="1" width="76" height="76" rx="13" fill="#FFDECC"/>
<rect x="1" y="1" width="76" height="76" rx="13" stroke="#262626" stroke-width="2"/>
<path d="M28.4823 45.5116L28.8516 46.9106C29.3193 48.7295 30.3409 49.6622 32.3719 49.6622H45.6281C47.6714 49.6622 48.6807 48.7527 49.1607 46.9106L49.53 45.5116H28.4823ZM28.0762 43.9142H49.9484L52.2624 34.9369L51.2532 34.3889L45.579 38.3063C45.1604 38.5862 44.8773 38.4812 44.6434 38.1664L39.3016 30.5181L38.7107 30.4948L33.3196 38.2013C33.1104 38.5045 32.8642 38.5978 32.4457 38.3179L26.8822 34.4705L25.7006 34.762L28.0762 43.9142ZM26.156 37.2686C27.7808 37.2686 29.0855 36.0211 29.0855 34.4705C29.0855 32.9548 27.7808 31.6957 26.156 31.6957C24.5313 31.6957 23.2143 32.9432 23.2143 34.4705C23.2143 36.0211 24.5436 37.2686 26.156 37.2686ZM39.0062 32.4185C40.6186 32.4185 41.9356 31.171 41.9356 29.632C41.9356 28.1163 40.6186 26.8572 39.0062 26.8572C37.3692 26.8572 36.0644 28.1047 36.0644 29.632C36.0644 31.171 37.3815 32.4185 39.0062 32.4185ZM51.844 37.2686C53.4564 37.2686 54.7857 36.0211 54.7857 34.4705C54.7857 32.9432 53.4687 31.6957 51.844 31.6957C50.2316 31.6957 48.9146 32.9548 48.9146 34.4705C48.9146 36.0211 50.2316 37.2686 51.844 37.2686Z" fill="#262626"/>
</svg>
