<svg width="80" height="80" viewBox="0 0 80 80" fill="none" xmlns="http://www.w3.org/2000/svg">
<rect x="0.5" y="0.5" width="79" height="79" rx="39.5" fill="#FFF5F0"/>
<rect x="0.5" y="0.5" width="79" height="79" rx="39.5" stroke="#333333"/>
<mask id="mask0_1_275" style="mask-type:luminance" maskUnits="userSpaceOnUse" x="11" y="11" width="58" height="58">
<path d="M68.2381 11.875H11.8711V68.242H68.2381V11.875Z" fill="white"/>
</mask>
<g mask="url(#mask0_1_275)">
<path d="M41.2091 18.7531C42.8196 18.8106 44.4301 19.0982 46.0405 19.6158C48.2919 20.2514 50.2974 21.555 51.7923 23.3545C52.8851 24.7924 53.5753 26.5179 53.8054 28.3009C54.1158 30.2224 54.1545 32.178 53.9204 34.1102L53.6328 36.0658L53.4028 37.2161C53.3452 37.3312 53.3452 37.3312 53.2302 37.3312C53.1152 37.1011 53.1152 36.871 53.1152 36.641C53.0577 35.7782 53.1727 34.9729 53.2302 34.1102C53.2877 32.7298 53.4028 31.3494 53.2877 29.9689L52.9426 27.3807C52.54 25.7702 51.7923 24.2747 50.6419 23.0669C49.6066 22.0316 48.3412 21.1688 47.0183 20.5936C45.753 20.076 44.4876 19.7309 43.1647 19.5008C42.1294 19.3282 41.094 19.2707 40.0587 19.2707C37.5065 19.2289 34.9815 19.801 32.6965 20.9387C31.9488 21.4564 31.2586 22.0891 30.6834 22.7793C28.9136 25.1025 27.8189 27.869 27.52 30.7742C27.4624 32.1546 27.52 33.4775 27.9801 34.8004L28.3827 35.6632L29.0729 35.7207L29.1304 35.8932C28.9579 36.0083 28.7278 36.0083 28.4978 36.0658C27.9226 36.1808 27.3474 36.4109 26.8298 36.756C26.4271 37.0436 26.0245 37.3887 25.7944 37.8488C25.5069 38.424 25.6219 39.1142 25.7369 39.7469C26.0245 40.8397 26.7147 41.875 27.635 42.5652C28.2677 43.0829 29.0729 43.3705 29.8782 43.4855C30.4533 43.6005 31.0285 43.4855 31.6037 43.428C31.8913 43.6581 32.0638 44.1182 32.2364 44.4058L33.2717 45.9588C34.2074 47.2886 35.5343 48.2939 37.0678 48.8346C38.3332 49.3523 39.6561 49.6399 40.979 49.9274L43.3372 50.3876L44.315 50.6752V50.9052H43.6248C42.3319 50.8331 41.0447 50.6794 39.7712 50.4451C38.0606 50.1047 36.4245 49.4619 34.9397 48.547C34.307 48.1444 33.7318 47.6268 33.2717 46.9941C33.6701 49.3914 33.3499 51.853 32.3514 54.0687C31.4887 55.6217 30.0507 56.8295 28.3252 57.3472C28.1527 57.4047 27.9226 57.4622 27.75 57.4047C27.635 57.4047 27.635 57.3472 27.635 57.2321C27.6925 57.0596 27.8651 56.9446 27.9801 56.887C28.6703 56.4269 29.4756 56.0818 30.1658 55.5641C30.9135 54.9315 31.5462 54.2412 31.9488 53.3785C32.2939 52.5157 32.524 51.5379 32.639 50.5601C32.754 49.8124 32.8116 49.0647 32.754 48.2594L32.524 46.0738L31.4887 44.0032L30.3958 44.2332C29.5515 44.2578 28.7145 44.0707 27.961 43.6889C27.2076 43.3072 26.5616 42.7429 26.082 42.0476C25.3323 41.0977 24.9267 39.9217 24.9317 38.7116C24.9317 38.1939 25.1042 37.6763 25.3918 37.2736C25.6794 36.871 26.082 36.5259 26.4847 36.2958C26.7722 36.0658 27.1749 35.9507 27.52 35.8357L27.0023 34.4553C26.7147 33.1899 26.7147 31.867 26.8873 30.6016C27.2639 27.4607 28.52 24.49 30.5109 22.0316C31.0285 21.4564 31.5462 20.9387 32.1789 20.5361C32.5815 20.306 32.9841 20.2485 33.3292 20.0184C35.8025 18.9256 38.5058 18.5805 41.2091 18.7531Z" fill="#262626"/>
<path d="M40.0581 19.2692C42.448 19.1803 44.8271 19.6325 47.0177 20.5921C48.3406 21.1672 49.6059 22.03 50.6413 23.0653C51.7916 24.2732 52.5393 25.7686 52.9419 27.3791L53.287 29.9674C53.4021 31.3478 53.287 32.7282 53.2295 34.1086C53.172 34.9714 53.057 35.7766 53.1145 36.6394C53.1145 36.8695 53.1145 37.0995 53.2295 37.3296L53.172 38.4799C53.057 38.7675 53.057 39.0551 53.057 39.4002C52.9419 40.7806 52.9419 42.2186 52.7119 43.6565C52.6544 44.3467 52.5393 45.0944 52.2517 45.7271C52.0792 46.2448 51.7916 46.7049 51.389 47.1075C50.6988 47.8553 49.836 48.4879 48.9157 49.0056C47.8229 49.6383 46.6726 49.9259 45.5797 50.386C45.2921 50.5011 45.0046 50.6161 44.832 50.8462C45.2921 50.9037 45.6948 50.8462 46.1549 50.7311C45.8673 51.4213 45.8098 52.1115 45.8098 52.8017C45.8098 53.0893 45.7523 53.4344 45.8673 53.722C46.0399 54.0096 46.3275 54.2397 46.615 54.4122L48.6281 55.16C49.8935 55.6201 51.1014 56.1953 52.3668 56.7129C52.4818 56.943 52.6544 57.1155 52.7119 57.4031C53.057 58.0358 53.1145 58.726 52.8844 59.4162C52.5968 60.164 52.0217 60.7966 51.3315 61.1993C50.4112 61.832 49.2608 62.2921 48.168 62.5797C43.6957 63.5352 39.0589 63.3971 34.6514 62.1771C33.5011 61.7744 32.3507 61.3718 31.3154 60.7966C30.5102 60.3365 29.6474 59.7613 29.0147 59.0136C28.6696 58.5535 28.3821 57.9208 28.3245 57.3456C29.6714 56.9345 30.8633 56.1278 31.7455 55.0302C32.6277 53.9326 33.1592 52.595 33.271 51.1913C33.5011 49.8108 33.5011 48.3729 33.271 46.9925C33.7312 47.6252 34.3063 48.1428 34.939 48.5455L36.492 49.3507C38.747 50.3235 41.1688 50.8509 43.6241 50.9037H44.3143V50.6736L43.3366 50.386L40.9783 49.9259C39.6554 49.6383 38.3325 49.3507 37.0672 48.833C36.3194 48.4879 35.5142 48.0853 34.824 47.6252C34.2488 47.1075 33.7312 46.5899 33.271 45.9572L32.2357 44.4042C32.0632 44.1166 31.8906 43.6565 31.603 43.4264C31.0279 43.4839 30.4527 43.599 29.8775 43.4839C29.0723 43.3689 28.267 43.0813 27.6343 42.5637C26.7152 41.8526 26.0496 40.8643 25.7363 39.7453C25.6212 39.1126 25.5062 38.4224 25.7938 37.8472C26.0238 37.3871 26.4265 37.042 26.8291 36.7544C27.3467 36.4093 27.9219 36.1792 28.4971 36.0642C28.7272 36.0067 28.9572 36.0067 29.1298 35.8917L29.0723 35.7191L28.3821 35.6616L27.9794 34.7988C27.5193 33.4759 27.4618 32.153 27.5768 30.7726C27.8589 27.8731 28.9335 25.1072 30.6827 22.7777C31.2579 22.0875 31.9481 21.4548 32.6959 20.9372C34.9759 19.7795 37.5011 19.1877 40.0581 19.2116V19.2692Z" fill="#FFDECC"/>
<path d="M27.6934 38.1406C27.9234 38.1406 28.096 38.1406 28.326 38.2557C28.6136 38.3132 28.9587 38.4857 29.1313 38.7158C29.2463 38.8884 29.2463 39.1184 29.1313 39.291C28.8437 39.6361 28.4411 39.8661 28.211 40.2112C28.5561 40.4413 29.0163 40.5564 29.4189 40.7289C29.6489 40.7864 29.879 40.9015 30.0516 41.074L30.1091 41.2466L29.6489 41.1315L28.2685 40.7289C28.0385 40.6714 27.8084 40.5564 27.7509 40.3263C27.6934 40.1537 27.8084 39.9237 27.9234 39.7511L28.7862 39.0034C28.5561 38.6008 27.9234 38.5432 27.6934 38.1406ZM53.1735 38.4857L53.2886 38.6583L53.4036 39.5786C53.5229 41.2848 53.4844 42.9984 53.2886 44.6976C53.1735 45.3303 53.001 46.0205 52.7134 46.5957C51.1873 48.5923 49.0437 50.0281 46.6166 50.6794C46.559 51.4846 46.444 52.4624 46.5015 53.3827L46.7891 53.6703C47.2492 54.0154 47.8244 54.188 48.3421 54.3605C49.6875 54.79 50.9955 55.3286 52.2533 55.971C52.6559 56.2011 53.001 56.4886 53.2886 56.8337C53.001 56.8913 52.7134 56.7762 52.3683 56.7187C51.1029 56.2011 49.895 55.6259 48.6297 55.1657L46.6166 54.418C46.329 54.2455 46.0414 54.0154 45.8688 53.7278C45.7538 53.4402 45.8113 53.0951 45.8113 52.8075C45.8113 52.1173 45.8688 51.4271 46.1564 50.7369C45.6963 50.852 45.2937 50.9095 44.8335 50.852C45.0061 50.6219 45.2937 50.5068 45.5812 50.3918C46.6741 49.9317 47.8244 49.6441 48.9172 49.0114C49.8375 48.4937 50.7003 47.8611 51.3905 47.1133C51.7931 46.7107 52.0807 46.2506 52.2533 45.7329C52.5408 45.1002 52.6559 44.3525 52.7134 43.6623C52.9435 42.2244 52.9435 40.7864 53.0585 39.406C53.0585 39.0609 53.0585 38.7733 53.1735 38.4857Z" fill="#262626"/>
<path d="M52.5975 34.625L52.4824 35.0276C52.3099 35.3152 52.1373 35.5453 51.8497 35.7178C51.5622 35.8904 51.2171 35.9479 50.8719 36.0054L49.8366 36.1205C49.5491 36.1205 49.3765 36.293 49.2615 36.4656L48.8588 36.8682C48.7438 36.9257 48.5713 36.8107 48.6288 36.6956C48.6863 36.2355 49.0314 35.8904 49.2615 35.5453C49.434 35.3727 49.6641 35.1427 49.9517 35.1427L51.6772 34.8551C51.9648 34.7976 52.2524 34.625 52.5975 34.625ZM35.0547 34.8551C35.7449 34.7976 36.2626 35.0276 36.8952 35.0851C37.758 35.2002 38.6208 35.3152 39.4835 35.3152L40.8639 35.4302C41.3241 35.4878 41.8417 35.4302 42.2444 35.6603C42.647 35.8904 42.9346 36.2355 43.1646 36.5806C43.2221 36.6956 43.2797 36.8107 43.1646 36.9832C43.1071 37.0407 42.9921 36.9832 42.9346 36.9257C42.7045 36.8107 42.5319 36.5806 42.3019 36.5231L41.6117 36.4656L40.0012 36.408L38.7358 36.3505C38.1606 36.293 37.5854 36.293 37.0103 36.0629C36.6077 35.9479 36.3201 35.7178 35.9174 35.5453L35.2272 35.0276C35.1122 34.9701 35.0547 34.9701 35.0547 34.8551Z" fill="#262626"/>
<path d="M41.6686 27.9549C42.0712 27.9549 42.4739 28.0699 42.7615 28.3C42.9915 28.415 43.1641 28.53 43.2216 28.7601C43.2791 28.8751 43.2216 29.0477 43.1066 29.1052C42.819 29.1627 42.5314 28.9902 42.3013 28.9327L41.7837 28.8751C41.0359 28.8176 40.2882 28.9327 39.5405 29.1052C38.2819 29.4613 37.1081 30.0678 36.0894 30.8882C35.8594 31.0033 35.5718 31.1758 35.2842 31.1183C35.1116 31.1183 35.1116 30.8882 35.1692 30.7157C35.2267 30.3706 35.5718 30.083 35.8594 29.7954C36.4345 29.2778 37.1823 28.9327 37.8725 28.6451C39.0228 28.1274 40.4032 27.8398 41.6686 27.9549ZM50.6413 28.0699C51.0439 27.9549 51.4466 28.0124 51.7917 28.2425C52.0217 28.415 52.2518 28.5876 52.3093 28.8751C52.3668 29.0477 52.3668 29.2202 52.1943 29.2778C52.0217 29.3353 51.7917 29.3353 51.6191 29.2202C51.3315 29.0477 51.1015 28.8751 50.7564 28.8751C50.4688 28.8751 50.1812 28.9327 49.9511 29.0477C49.491 29.2778 49.0308 29.6804 48.8008 30.1405L48.4557 30.6582H48.2831V30.3131C48.3981 29.8529 48.6857 29.3928 49.0308 29.0477C49.4335 28.5876 50.0086 28.1849 50.6413 28.0699Z" fill="#262626"/>
<path d="M25.1616 38.0248C25.4492 38.0248 25.7368 37.9673 25.9669 38.1399C26.1394 38.2549 26.2545 38.4274 26.1969 38.6575C26.0819 38.8876 25.8518 39.0601 25.5642 39.0601H24.644C24.3564 39.0026 24.1263 38.8876 24.0113 38.6575C23.9538 38.4274 24.1263 38.2549 24.2989 38.1399C24.5865 38.0248 24.874 38.0823 25.1616 38.0248ZM25.9094 39.3477C26.0819 39.4052 26.312 39.5203 26.312 39.7503C26.312 39.9229 26.2545 40.0955 26.0819 40.153C25.7943 40.383 25.4492 40.383 25.1041 40.4981C24.8165 40.5556 24.5289 40.6131 24.2989 40.4406C24.0688 40.268 24.1263 39.9229 24.2989 39.7503C24.5289 39.5203 24.759 39.5203 25.0466 39.4628C25.3342 39.4052 25.6218 39.2902 25.9094 39.3477ZM30.0506 42.3386H30.5107C30.6833 42.3961 30.8558 42.5687 30.8558 42.7988C30.8558 43.0864 30.6258 43.3164 30.3382 43.3739C30.0506 43.489 29.8205 43.2589 29.7055 43.0288C29.648 42.7412 29.763 42.3961 30.0506 42.3386Z" fill="#262626"/>
<path d="M47.6509 40.1484C47.6509 40.321 47.5359 40.4935 47.4208 40.6661C47.1908 41.0112 46.7882 41.2413 46.3855 41.3563C46.098 41.4138 45.8679 41.2413 45.6378 41.3563C45.4077 41.3563 45.1777 41.4138 44.9476 41.2988C44.8326 41.2413 44.8326 41.0687 44.9476 40.9537C45.1202 40.7236 45.4077 40.5511 45.6378 40.5511C45.8679 40.4935 46.0404 40.4935 46.213 40.6661L46.2705 41.0687C46.5581 40.9537 46.6731 40.7811 46.9032 40.6086L47.6509 40.1484Z" fill="#262626"/>
<path d="M54.0921 38.9461C54.6098 38.9461 55.0699 39.1762 55.3575 39.5788C55.4919 39.7555 55.5898 39.9572 55.6452 40.1721C55.7007 40.387 55.7127 40.6108 55.6806 40.8305C55.6484 41.0501 55.5728 41.2611 55.458 41.4511C55.3433 41.6411 55.1918 41.8063 55.0124 41.937C55.4726 42.0521 55.9327 42.3397 56.2778 42.6848C56.7955 43.3175 57.1981 44.1802 57.1406 45.043C57.083 45.5031 56.9105 45.9057 56.6804 46.2508C56.2203 46.9986 55.4726 47.5162 54.6673 47.8613L55.1275 48.379C55.3 48.7816 55.3575 49.1842 55.3575 49.6444C55.3 50.3346 55.0124 51.0248 54.4948 51.5424C53.9007 52.1105 53.1286 52.4559 52.3091 52.5202C51.7339 52.5777 51.1012 52.5777 50.5261 52.4052C50.4685 52.8078 50.3535 53.268 50.181 53.6706C49.7934 54.3541 49.1771 54.8788 48.4405 55.1524C47.704 55.426 46.8945 55.4308 46.1548 55.166C45.4645 54.8784 44.8894 54.3608 44.5443 53.7856C43.6815 54.3033 42.7612 54.4758 41.7834 54.4758C40.9782 54.5333 40.0004 54.4758 39.3102 54.0732C38.8501 53.9006 38.5625 53.5555 38.2749 53.2104C38.1023 53.0379 37.9873 52.8653 37.9298 52.5777C37.2971 53.0954 36.4343 53.2104 35.6866 53.0954C35.1114 52.9228 34.5938 52.6353 34.3062 52.1176C34.0186 51.7725 33.9611 51.2548 33.9611 50.7947H33.1558C32.6957 50.7372 32.2356 50.5071 31.8329 50.2195C31.2003 49.6444 30.6826 48.8966 30.3375 48.0914C30.2225 47.7463 30.1074 47.4012 30.1074 46.9986C30.1074 46.3659 30.3375 45.7332 30.7401 45.2155C30.5676 44.8129 30.51 44.4103 30.6251 44.0077C30.7976 43.3175 31.3153 42.7423 31.8905 42.3972C32.4081 42.0521 33.0408 41.937 33.6735 41.9946C33.7885 41.6495 33.9611 41.4194 34.2487 41.1893C34.8814 40.6141 35.6866 40.269 36.5494 40.269C37.1245 40.269 37.6422 40.3266 38.1023 40.5566C38.3324 40.2115 38.62 40.039 38.9651 39.9239C39.5978 39.6364 40.288 39.6939 40.9207 39.9815C42.0135 40.3841 42.8763 41.0168 43.9116 41.4194C44.1992 41.6495 44.6018 41.5919 45.0044 41.6495C45.407 41.707 45.8096 41.6495 46.2123 41.5919C46.3848 41.5344 46.6149 41.5344 46.7299 41.4194L47.8228 40.8442L48.9731 39.9815C49.4332 39.6939 50.0084 39.4063 50.5836 39.4638C50.8137 39.5213 50.9862 39.6364 51.1012 39.8089C51.9892 39.2279 53.0312 38.9274 54.0921 38.9461Z" fill="#262626"/>
<path d="M40.232 44.2882C40.4046 44.2307 40.5196 44.2882 40.5196 44.4032C40.5196 44.5758 40.3471 44.7483 40.1745 44.8058C40.0019 44.6333 40.0595 44.4032 40.232 44.2882ZM41.6699 44.9784L43.7406 45.381L45.4661 45.4961C45.8687 45.5536 46.2138 45.4961 46.5589 45.6111C46.5014 45.7261 46.3864 45.7836 46.2138 45.8412C44.7878 46.0658 43.3287 45.9475 41.9575 45.4961C41.785 45.4385 41.5549 45.3235 41.4974 45.1509C41.4399 45.0359 41.5549 44.9209 41.6699 44.9784Z" fill="#FFDECC"/>
<path d="M39.9443 18.0063C41.5685 18.0095 43.1878 18.183 44.7758 18.524C45.4084 18.6965 45.9836 18.8116 46.5588 19.0416L48.5719 19.7893C49.1471 19.9619 49.6647 20.307 50.2399 20.5371L51.1602 20.8822L52.8282 21.2273C53.1158 21.3423 53.3458 21.5149 53.4609 21.8025C53.6334 22.1476 53.5759 22.4927 53.4609 22.8378L54.036 23.1254C54.3236 23.4129 54.4387 23.8156 54.3236 24.2182C54.2086 24.4483 53.9785 24.6208 53.7485 24.7358C52.5246 25.3635 51.1148 25.527 49.7798 25.196L47.249 24.6208L43.6829 23.643C40.6342 22.6 37.3159 22.661 34.3076 23.8156L34.0775 24.6208C33.8475 25.5411 33.6749 26.4614 33.6174 27.3816V28.3594L33.5599 28.8196C33.3873 29.2222 33.0422 29.6248 32.8122 30.0274C32.1219 31.0627 31.4893 32.1556 30.9716 33.2484L30.8566 34.0536V36.2968C30.8566 36.5844 30.9716 36.8145 30.7991 37.0445C29.9363 36.9295 29.0735 36.6994 28.1533 36.4694C28.0382 36.4694 27.8657 36.4694 27.7506 36.3543L27.348 35.8367C27.1179 35.6641 27.0604 35.319 26.9454 35.0314C26.5428 33.8236 26.4277 32.4432 26.4277 31.1203C26.4277 29.5098 26.7153 27.9568 27.0029 26.4038C27.233 25.5411 27.5781 24.7358 27.9807 23.9881C28.5559 22.8378 29.3611 21.86 30.2814 20.9972C31.2017 20.0769 32.2945 19.4442 33.5024 18.9841C35.5674 18.2493 37.7542 17.9173 39.9443 18.0063ZM29.3036 37.0445C29.8788 37.0445 30.4539 37.2171 30.9716 37.3321C31.2017 37.3896 31.4893 37.5047 31.6618 37.6772C31.8344 37.7923 31.7768 38.0223 31.6043 38.0799C31.0866 38.2524 30.684 38.0799 30.2239 37.9648C29.8788 37.8498 29.4186 37.7348 29.0735 37.5047C28.9585 37.4472 28.7859 37.2746 28.901 37.1596C29.016 37.0445 29.1886 37.0445 29.3036 37.0445ZM54.4387 43.7741C54.4962 43.8891 54.4962 43.9466 54.3811 44.0617L54.4387 43.7741Z" fill="#262626"/>
</g>
</svg>
