<svg width="81" height="80" viewBox="0 0 81 80" fill="none" xmlns="http://www.w3.org/2000/svg">
<rect x="0.833374" y="0.5" width="79" height="79" rx="39.5" fill="#FFF5F0"/>
<rect x="0.833374" y="0.5" width="79" height="79" rx="39.5" stroke="#333333"/>
<mask id="mask0_1_303" style="mask-type:luminance" maskUnits="userSpaceOnUse" x="12" y="11" width="57" height="58">
<path d="M68.5714 11.875H12.2045V68.242H68.5714V11.875Z" fill="white"/>
</mask>
<g mask="url(#mask0_1_303)">
<path d="M43.112 20.4046C45.4702 20.7497 47.7134 21.67 49.6115 23.1079C51.222 24.3158 52.4873 25.9262 53.3501 27.7668C54.0978 29.3773 54.5005 31.2178 54.4429 33.0009C54.3854 33.8636 54.2704 34.7264 53.9828 35.5316H53.8678L53.9253 34.3238C53.9828 32.5982 53.8102 30.9302 53.1776 29.3198C52.6024 27.5942 51.5671 26.0413 50.3017 24.7759C47.886 22.4752 44.665 21.2098 41.329 21.1523C39.1591 21.1164 37.0108 21.5863 35.054 22.5248C33.0973 23.4632 31.386 24.8444 30.0556 26.5589C28.3523 28.8605 27.5355 31.6989 27.7549 34.5538L27.8699 35.9918C28.3301 35.9918 28.9628 35.9918 29.3079 36.3944L29.1353 36.5669L28.1575 36.6245C27.4673 36.682 26.7771 36.912 26.2595 37.3722C25.6873 37.9865 25.3423 38.778 25.2817 39.6154C24.9941 41.4559 25.9719 43.354 27.5248 44.3893C28.4451 44.9645 29.5955 45.2521 30.6883 44.9069C30.9184 44.7919 31.2059 44.6194 31.4935 44.7344C31.6661 44.7919 31.7236 44.9645 31.7811 45.137C32.9511 47.4896 34.7409 49.4783 36.9577 50.8887C37.4178 51.2914 37.993 51.6365 38.5682 51.9241C39.6035 52.3842 40.7538 52.7293 41.8466 53.0169L43.6872 53.477C43.9748 53.5345 44.2049 53.5345 44.4349 53.6496L44.2049 53.7071C42.7669 53.8221 41.444 53.5345 40.0636 53.1319C39.3734 52.9594 38.7407 52.7293 38.108 52.4417C36.3008 51.5212 34.6662 50.2953 33.2766 48.8181L33.3916 50.4286C33.4491 51.4064 33.3916 52.4417 33.0465 53.4195C32.8164 54.1097 32.4138 54.7999 31.9537 55.3751C31.3785 55.9503 30.6883 56.4679 29.9981 56.8705C29.4229 57.2732 28.7902 57.6758 28.1575 57.9059L27.2372 58.1934L27.7549 57.6758L29.5379 56.5254L30.8033 55.5477C31.7737 54.7215 32.4247 53.5821 32.6439 52.3267C32.7589 51.5214 32.7589 50.7162 32.7589 49.8534V48.3005C32.1837 47.4952 31.4935 46.6325 31.2059 45.6547C30.2281 46.1148 29.0203 46.0573 28.0425 45.5972C27.0647 45.1945 26.2019 44.5043 25.5692 43.6991C24.879 42.7213 24.4764 41.6285 24.3614 40.4781C24.2463 39.3278 24.4764 38.1774 25.2241 37.2571C25.7418 36.682 26.4895 36.2218 27.2372 36.0493C27.0072 35.244 26.8921 34.3813 26.8921 33.5185C26.9395 31.6168 27.3894 29.7466 28.2123 28.0314C29.0352 26.3163 30.2123 24.795 31.6661 23.568C33.2367 22.2528 35.0712 21.2898 37.0457 20.7441C39.0203 20.1984 41.0889 20.0826 43.112 20.4046Z" fill="#262626"/>
<path d="M50.3013 24.7817C51.5667 26.0471 52.602 27.6001 53.1772 29.3256C53.8099 30.9361 53.9824 32.6041 53.9249 34.3296L53.8674 35.5375L53.5798 36.4002L53.4648 37.148L53.5798 40.3689C53.5798 41.5768 53.6373 42.7847 53.5223 43.9925L53.3497 46.6958C53.2347 47.6161 52.9471 48.4789 52.5445 49.2841C51.9118 50.3194 51.049 51.1822 50.0137 51.8149C49.266 52.275 48.4608 52.5051 47.6555 52.7352L45.4699 53.3679L44.4921 53.5404C44.4921 53.5979 44.5496 53.6554 44.6646 53.6554C45.1248 53.943 45.6424 53.943 46.1601 53.8855C45.9875 54.2881 45.93 54.6908 46.045 55.1509C46.2176 55.5535 46.6777 55.7836 47.0228 55.9561C47.713 56.3012 48.4032 56.3588 49.0935 56.4738C49.4961 56.8189 49.8987 57.279 50.0137 57.8542C50.1288 58.3143 50.1288 58.7745 49.8987 59.1771C49.6111 59.7523 49.0935 60.2124 48.5183 60.5C47.7706 60.9601 46.9653 61.3052 46.1026 61.5353C41.9033 62.5405 37.5238 62.5208 33.3337 61.4778C32.3559 61.2477 31.4356 60.9601 30.5729 60.5C29.8827 60.1549 29.25 59.7523 28.7323 59.2346C28.4447 58.832 28.2147 58.4294 28.1572 57.9117C28.7898 57.6817 29.4225 57.279 29.9977 56.8764C30.6879 56.4738 31.3781 55.9561 31.9533 55.381C32.4134 54.8058 32.8161 54.1156 33.0461 53.4254C33.3912 52.4476 33.4487 51.4123 33.3912 50.4345L33.2762 48.824L34.5416 50.1469C35.6344 51.0096 36.8423 51.8724 38.1076 52.4476C38.7403 52.7352 39.373 52.9652 40.0632 53.1378C41.4437 53.5404 42.7666 53.828 44.2045 53.713L44.4346 53.6554C44.2045 53.5404 43.9744 53.5404 43.6868 53.4829L41.8463 53.0228C40.7534 52.7352 39.6031 52.3901 38.5678 51.9299L36.8998 50.9521C36.2671 50.4345 35.5769 49.9743 35.0017 49.3992C33.6728 48.1929 32.5805 46.7495 31.7807 45.1429C31.7232 44.9703 31.6657 44.7978 31.4932 44.7403C31.2056 44.6252 30.918 44.7978 30.6879 44.9128C29.5951 45.2579 28.4447 44.9703 27.5245 44.3952C26.7479 43.8825 26.1276 43.1657 25.7319 42.3235C25.3361 41.4813 25.1802 40.5463 25.2813 39.6212C25.3388 38.816 25.6839 38.0107 26.2591 37.378C26.7767 36.9179 27.4669 36.6878 28.1572 36.6303L29.1349 36.5728L29.3075 36.4002C28.9624 35.9976 28.3297 35.9976 27.8696 35.9976L27.7545 34.5597C27.5351 31.7048 28.3519 28.8664 30.0552 26.5648C31.3856 24.8503 33.0969 23.4691 35.0537 22.5306C37.0104 21.5922 39.1588 21.1223 41.3286 21.1582C44.6646 21.2157 47.8856 22.4811 50.3013 24.7817Z" fill="#FFDECC"/>
<path d="M53.5807 36.3984C53.7532 36.3984 53.7532 36.6285 53.8107 36.7435C53.9833 37.3762 54.0408 38.0664 54.0983 38.6991L54.2134 39.907C54.2709 41.1724 54.3284 42.3802 54.2709 43.6456C54.2134 44.8535 54.2134 46.1764 53.9833 47.3842C53.7389 48.6367 53.1919 49.8104 52.3899 50.8029C51.5878 51.7954 50.5552 52.5766 49.3819 53.0785C48.5192 53.4811 47.5989 53.7111 46.6211 53.8262V54.6889C46.6786 54.8615 46.7936 54.919 46.9087 55.034C47.5989 55.3791 48.2316 55.4942 48.9793 55.6667C49.6695 55.8393 50.3597 55.9543 51.0499 56.2994C50.8774 56.472 50.6473 56.5295 50.4172 56.5295C50.0146 56.587 49.5545 56.472 49.0943 56.472C48.4041 56.3569 47.7139 56.2994 47.0237 55.9543C46.6786 55.7818 46.2185 55.5517 46.0459 55.1491C45.9309 54.6889 45.9884 54.2863 46.1609 53.8837C45.6433 53.9412 45.1256 53.9412 44.6655 53.6536C44.5505 53.6536 44.4929 53.5961 44.4929 53.5386L45.4707 53.366L47.6564 52.7334C48.4616 52.5033 49.2669 52.2732 50.0146 51.8131C51.0499 51.1804 51.9127 50.3176 52.5454 49.2823C52.948 48.4771 53.2356 47.6143 53.3506 46.694L53.5232 43.9907C53.6382 42.7829 53.5807 41.575 53.5807 40.3671L53.4656 37.1462L53.5807 36.3984ZM27.2377 37.9514C27.6979 37.9514 28.2155 38.0089 28.5606 38.354C28.8482 38.5841 29.1358 38.8717 29.2509 39.2168C29.3084 39.3893 29.2509 39.5619 29.1358 39.6769L28.3881 40.1371C27.9855 40.4822 27.9855 41.2299 28.3881 41.575C28.7332 41.8626 29.1933 42.0351 29.596 42.2077C29.711 42.2077 29.8835 42.2652 29.9411 42.3802C29.8835 42.4953 29.7685 42.5528 29.6535 42.5528C29.0783 42.5528 28.5031 42.3802 28.043 42.0351C27.7554 41.8626 27.5829 41.575 27.5253 41.2874C27.4103 40.8273 27.4103 40.3096 27.7554 39.907C27.9855 39.5619 28.3881 39.3893 28.7907 39.2168C28.5606 38.9292 28.3881 38.5841 27.9855 38.4691C27.5829 38.2965 27.1227 38.2965 26.7201 38.1815L27.2377 37.9514Z" fill="#262626"/>
<path d="M52.0267 34.2734C52.2568 34.2734 52.4868 34.2734 52.6019 34.446C52.8319 34.6185 52.8319 35.0212 52.5444 35.1937C52.3718 35.3087 52.1993 35.3087 51.9692 35.3087L50.9339 35.5388C50.9339 35.9414 50.8764 36.4016 50.7038 36.8042C50.5888 37.0918 50.3587 37.3219 50.1286 37.4944C49.7835 37.667 49.3809 37.5519 49.1508 37.2643L48.9783 36.8042C48.8057 36.9768 48.6907 37.1493 48.4606 37.2643C48.2881 37.3219 48.2306 37.2643 48.2306 37.0918C48.2881 36.7467 48.4606 36.4591 48.6907 36.229C49.2963 35.3902 50.137 34.7498 51.1064 34.3885L52.0267 34.2734ZM38.1075 35.0787C38.7402 35.0787 39.3154 35.1937 39.8905 35.3087C40.6958 35.5388 41.501 35.7689 42.1912 36.3441C42.3638 36.5166 42.6514 36.6892 42.7089 36.9192C42.7089 37.0343 42.7089 37.0918 42.5939 37.0918L41.9612 36.8042C41.386 36.5166 40.6958 36.3441 40.0056 36.229C39.8905 36.7467 39.7755 37.2643 39.4304 37.7245C39.2003 37.9545 38.9128 38.0696 38.5676 38.0696C38.1075 38.0121 37.6474 37.782 37.3598 37.4369C37.0722 37.0343 37.0147 36.6316 36.9572 36.114L36.1519 36.3441C35.9794 36.4016 35.8068 36.4591 35.6343 36.4016C35.3467 36.3441 35.2316 36.0565 35.2892 35.7689C35.3467 35.5388 35.5767 35.4238 35.8068 35.3663C36.497 35.0787 37.3598 35.0212 38.1075 35.0787Z" fill="#262626"/>
<path d="M40.2939 28.5791C41.2142 28.6366 42.192 28.9817 42.9397 29.5569C43.1123 29.7294 43.3424 29.8444 43.3999 30.0745C43.4574 30.1895 43.3424 30.3621 43.2273 30.3046C42.7672 30.2471 42.3646 30.017 41.9044 29.902C41.5018 29.7294 41.0417 29.6144 40.5815 29.6144C40.1789 29.5569 39.7188 29.6144 39.3161 29.6719C38.4534 29.7869 37.5906 30.1895 36.8429 30.5922L35.635 31.1098L35.5775 31.0523C35.635 30.8222 35.7501 30.5346 35.9226 30.3621C36.2677 29.7869 36.9004 29.4418 37.4756 29.1542C38.3383 28.7516 39.3161 28.5215 40.2939 28.5791ZM51.4523 28.8091C51.7399 28.9242 52.085 29.0967 52.3151 29.3843C52.5451 29.6144 52.6026 29.902 52.5451 30.2471L51.2222 29.8444C50.8196 29.7294 50.4745 29.7869 50.0719 29.7294C49.6693 29.7294 49.2091 29.7869 48.864 30.017L48.1163 30.4771H47.9437C47.8862 30.3046 47.9437 30.132 48.0588 30.017C48.3464 29.4993 48.8065 29.1542 49.3242 28.9817C50.0144 28.7516 50.7046 28.6366 51.4523 28.8091Z" fill="#262626"/>
<path d="M47.4252 41.6328V41.6903C47.1951 42.1505 46.7925 42.5531 46.2749 42.7256C46.1023 42.7832 45.8722 42.7832 45.7572 42.6681V42.4381C46.1598 42.1505 46.6775 41.9204 47.1376 41.7478L47.4252 41.6328Z" fill="#262626"/>
<path fill-rule="evenodd" clip-rule="evenodd" d="M39.3737 43.6428L38.5684 43.4128H38.5109C38.3959 43.3553 38.2233 43.3553 38.1658 43.4703C38.1083 43.5278 38.1658 43.6428 38.2233 43.6428L38.5684 43.8154L38.6834 43.8729C40.0059 44.5409 41.4214 45.0062 42.8822 45.2533C42.8822 45.656 42.9972 46.0586 43.2848 46.4037C43.5724 46.8063 43.975 47.1514 44.4927 47.324C45.0679 47.554 45.7006 47.4965 46.2757 47.2664C46.8509 47.0364 47.311 46.5762 47.5411 46.0011C47.6561 45.771 47.6561 45.4834 47.6561 45.2533L48.6915 44.9082V44.8507L48.8065 44.7357C48.2505 44.7303 47.6945 44.7303 47.1385 44.7357C45.4868 44.8794 43.8233 44.802 42.192 44.5056L39.9488 43.8729L39.8338 43.8154L39.3737 43.6428ZM43.3424 45.3109C43.3999 45.886 43.86 46.3462 44.3777 46.6337C45.0679 47.1514 46.2182 46.9213 46.6784 46.1736C46.8509 45.9435 46.9084 45.656 46.9659 45.3684V45.3109L45.4705 45.4259L45.528 45.4834C45.528 45.656 45.5855 45.771 45.4705 45.9435C45.3555 46.1161 45.1254 46.1161 45.0679 45.9435C44.9528 45.771 44.9528 45.5984 45.0104 45.4259C44.5315 45.3817 44.0522 45.3434 43.5724 45.3109H43.3424Z" fill="#262626"/>
<path d="M37.6485 17.9922H39.9492C42.7675 18.1072 45.5283 18.6249 48.2316 19.2576C49.8421 19.6602 51.3376 20.1778 52.7755 20.9831C53.5232 21.4432 54.3285 22.0184 54.9037 22.7086C55.5939 23.4563 56.054 24.3766 56.2266 25.3544C56.4566 26.5623 56.4566 27.8276 56.054 29.0355C55.7664 29.8983 55.2488 30.761 54.501 31.3362C53.4657 32.199 52.1428 32.7741 50.8199 32.8317C50.7049 32.8892 50.5899 32.8317 50.5899 32.6591L51.05 31.7388C50.4336 32.3429 49.6854 32.7957 48.8643 33.0617C48.6343 33.1192 48.2892 33.1768 48.0591 33.0617V32.7741C48.0591 31.9114 48.0016 31.1061 47.7715 30.3009C47.599 29.3806 47.1388 28.6329 46.7362 27.8276C46.8512 28.6904 46.7937 29.6107 46.6212 30.4734C46.4486 31.2787 46.1035 31.9689 45.5283 32.5441C45.4133 32.7741 45.1257 32.8317 44.8956 32.7166L44.7806 32.314C44.6656 31.6813 44.378 31.1061 44.0904 30.531C43.5727 29.3806 42.825 28.4028 41.9623 27.4825C40.7029 26.2235 39.2207 25.2093 37.5909 24.4916C37.6756 26.5025 37.482 28.5155 37.0158 30.4734C36.7857 31.2787 36.4406 32.0839 35.9229 32.7741C35.7504 33.0042 35.5203 33.3493 35.2327 33.4643H34.8301C34.8876 32.7741 34.8876 32.0839 34.7726 31.3937C34.6576 30.761 34.485 30.0708 34.1974 29.4956C34.0249 30.531 33.4497 31.3937 32.7595 32.199C32.2418 32.6591 31.7242 33.1192 31.0915 33.4643V37.3755L31.149 39.101C31.149 39.2736 30.9765 39.5612 30.8039 39.6187C30.5163 39.5612 30.2862 39.4461 30.0562 39.2736C29.366 38.8135 28.7333 38.2958 28.1581 37.6631C27.2142 36.6155 26.493 35.387 26.0382 34.0523C25.5834 32.7175 25.4045 31.3043 25.5123 29.8983C25.7044 27.4225 26.6109 25.0557 28.122 23.0852C29.6331 21.1147 31.6837 19.6252 34.0249 18.7974C35.1752 18.3373 36.3831 18.0497 37.6485 17.9922Z" fill="#262626"/>
</g>
</svg>
