<svg width="81" height="80" viewBox="0 0 81 80" fill="none" xmlns="http://www.w3.org/2000/svg">
<rect x="1.16669" y="0.5" width="79" height="79" rx="39.5" fill="#FFF5F0"/>
<rect x="1.16669" y="0.5" width="79" height="79" rx="39.5" stroke="#333333"/>
<mask id="mask0_1_248" style="mask-type:luminance" maskUnits="userSpaceOnUse" x="12" y="11" width="57" height="58">
<path d="M68.7954 11.875H12.4284V68.242H68.7954V11.875Z" fill="white"/>
</mask>
<g mask="url(#mask0_1_248)">
<path fill-rule="evenodd" clip-rule="evenodd" d="M44.7899 15.1425C44.4448 14.5674 43.9272 14.0497 43.1795 13.9922L43.4095 14.3373L43.5246 14.5674L43.9272 15.3151L44.0422 15.4301C44.3298 16.1203 44.5024 16.8105 44.5599 17.5583C44.5599 17.9609 44.4448 18.306 44.3298 18.7086C44.1573 17.7308 43.6396 16.9831 43.0644 16.2929C42.454 15.668 41.7053 15.1951 40.8788 14.9125C39.7456 14.4621 38.5034 14.362 37.3127 14.6249C36.8526 14.6824 36.4499 14.9125 35.9898 15.1425C35.5872 15.3726 35.2421 15.7177 34.897 16.0053C34.0615 16.8359 33.4142 17.8362 32.9989 18.9387C32.6538 19.8014 32.2512 20.6642 31.7335 21.4694C31.3309 22.1596 30.7557 22.7923 30.1806 23.31L28.5701 24.4028C27.6244 24.9977 26.7033 25.631 25.8092 26.3009C24.4863 27.4512 23.5085 29.0042 22.9909 30.7297C22.7608 31.5925 22.5883 32.5128 22.7033 33.3755C22.8183 33.8357 22.9334 34.2383 23.1634 34.6409V35.101C22.9334 36.1939 22.8759 37.3442 23.221 38.437C23.5996 39.7272 24.2464 40.9228 25.119 41.9456L25.9243 43.0384C26.2694 43.6136 26.557 44.2463 26.6145 44.9365C26.6145 45.4542 26.4419 45.9143 26.0393 46.2594C25.7298 46.5313 25.3513 46.7127 24.9455 46.7838C24.5397 46.8548 24.1221 46.8127 23.7386 46.662L23.451 46.4895L23.221 46.3744L23.1634 46.4895C23.1059 46.547 23.0484 46.662 23.1059 46.7771L23.5085 47.5248C23.8536 47.9849 24.2563 48.33 24.7739 48.5601C25.1765 48.7902 25.6367 48.8477 26.0968 48.7326C26.3844 48.6751 26.6145 48.5601 26.8445 48.3875C26.8445 48.9627 27.0171 49.5379 27.1897 50.0555C27.4197 50.6882 27.7648 51.3209 28.2825 51.7811C28.7426 52.2412 29.3178 52.4713 29.893 52.6438C30.4106 52.8164 30.9283 52.8164 31.4459 52.7013C31.561 52.6438 31.561 52.5863 31.561 52.4713L31.3884 52.0686L31.3309 51.9536L30.8708 50.8033C31.9061 51.551 33.1139 51.8961 34.3793 52.0111C35.1846 52.0686 36.0473 51.9536 36.795 51.666C36.9676 51.6085 37.1977 51.4935 37.2552 51.3209C37.3702 51.1484 37.2552 50.9758 37.1977 50.8033L36.9676 49.9405L36.9101 49.768C37.4277 50.1131 37.9454 50.3431 38.5781 50.3431C39.2683 50.3431 40.016 50.0555 40.4186 49.4804L40.5912 49.4228C40.3035 46.8858 39.7047 44.3938 38.8081 42.0031C38.4193 40.9651 37.9381 39.9641 37.3702 39.0122L37.2552 38.6671C37.2552 37.8044 37.1401 36.8266 36.6225 36.1364C37.0251 35.5037 37.0826 34.6984 37.1401 34.0082C37.1401 33.433 37.1401 32.8579 36.8526 32.3402L37.0826 32.2827L37.5428 32.2252C37.6578 32.1677 37.7153 31.9951 37.7728 31.8801C38.1579 30.2816 38.7374 28.7363 39.4984 27.2787L39.901 26.4734C40.016 26.3009 40.016 26.1283 40.0735 25.8983V25.6682L39.9585 24.863L39.901 24.3453L41.0513 24.6904H41.6265C44.5335 24.19 47.4975 24.1125 50.4266 24.4603L50.8293 24.5754L51.1169 24.6904C51.2319 24.6904 51.4044 24.6329 51.462 24.5179C51.6345 24.3453 51.692 24.1152 51.7495 23.8852L51.9221 24.0002L52.4398 24.4028L52.8424 24.6329C53.1077 24.6825 53.3779 24.7018 53.6476 24.6904L54.5679 25.6107L54.6254 25.6682C55.8375 27.0541 56.8802 28.5795 57.7313 30.2121C57.9614 30.3846 58.249 30.2696 58.364 30.0395C58.7667 29.1192 58.8242 28.0839 58.6516 27.1061C58.3321 25.6456 57.5686 24.3196 56.466 23.31C56.1209 22.9074 55.6607 22.5623 55.2006 22.2172L52.7849 20.9518C51.577 20.4341 50.3116 20.0315 49.0462 19.8014C47.6083 19.5138 46.1704 19.5138 44.6749 19.5714C45.3076 18.9387 45.4802 18.0759 45.4802 17.2132C45.4802 16.4654 45.1926 15.7752 44.7899 15.1425ZM29.9505 25.3806C30.6407 24.5754 31.3309 23.7701 31.8486 22.7923L30.9283 23.7701C30.3531 24.2878 29.7204 24.6329 29.0877 25.0355L28.455 25.4381L28.2825 25.4956C27.5348 25.9558 26.7295 26.4734 26.0968 27.0486C24.8314 28.1414 23.9687 29.6369 23.5661 31.2474C23.3935 32.1101 23.2785 33.0304 23.5085 33.8932C23.8536 32.8579 24.3713 31.8226 24.9465 30.9023C25.6942 29.7519 26.6145 28.6591 27.5923 27.6813L28.6851 26.5885L29.9505 25.3806Z" fill="#262626"/>
<path d="M46.4578 20.3781C48.0683 20.4356 49.6788 20.7232 51.2893 21.2408C53.5406 21.8764 55.5462 23.18 57.041 24.9794C58.1338 26.4174 58.824 28.1429 59.0541 29.9259C59.3645 31.8474 59.4032 33.8029 59.1691 35.7352L58.8815 37.6908L58.6515 38.8411C58.594 38.9562 58.594 38.9562 58.4789 38.9562C58.3639 38.7261 58.3639 38.496 58.3639 38.2659C58.3064 37.4032 58.4214 36.5979 58.4789 35.7352C58.5364 34.3548 58.6515 32.9744 58.5364 31.5939L58.1913 29.0057C57.7887 27.3952 57.041 25.8997 55.8906 24.6919C54.8553 23.6566 53.5899 22.7938 52.2671 22.2186C51.0017 21.701 49.7363 21.3559 48.4134 21.1258C47.3781 20.9532 46.3428 20.8957 45.3075 20.8957C42.7552 20.8539 40.2303 21.426 37.9452 22.5637C37.1975 23.0814 36.5073 23.7141 35.9321 24.4043C34.1623 26.7275 33.0677 29.494 32.7687 32.3992C32.7112 33.7796 32.7687 35.1025 33.2288 36.4254L33.6314 37.2882L34.3217 37.3457L34.3792 37.5182C34.2066 37.6333 33.9765 37.6333 33.7465 37.6908C33.1713 37.8058 32.5961 38.0359 32.0785 38.381C31.6759 38.6686 31.2732 39.0137 31.0432 39.4738C30.7556 40.049 30.8706 40.7392 30.9856 41.3719C31.2732 42.4647 31.9634 43.5 32.8837 44.1902C33.5164 44.7079 34.3217 44.9955 35.1269 45.1105C35.7021 45.2255 36.2772 45.1105 36.8524 45.053C37.14 45.2831 37.3126 45.7432 37.4851 46.0308L38.5204 47.5838C39.4561 48.9136 40.783 49.9189 42.3166 50.4596C43.5819 50.9773 44.9048 51.2649 46.2277 51.5524L48.5859 52.0126L49.5637 52.3002V52.5302H48.8735C47.5806 52.4581 46.2935 52.3044 45.0199 52.0701C43.3093 51.7297 41.6732 51.0869 40.1884 50.172C39.5557 49.7694 38.9806 49.2518 38.5204 48.6191C38.9188 51.0164 38.5986 53.478 37.6001 55.6937C36.7374 57.2467 35.2994 58.4545 33.5739 58.9722C33.4014 59.0297 33.1713 59.0872 32.9988 59.0297C32.8837 59.0297 32.8837 58.9722 32.8837 58.8571C32.9412 58.6846 33.1138 58.5696 33.2288 58.512C33.919 58.0519 34.7243 57.7068 35.4145 57.1891C36.1622 56.5564 36.7949 55.8662 37.1975 55.0035C37.5426 54.1407 37.7727 53.1629 37.8877 52.1851C38.0028 51.4374 38.0603 50.6897 38.0028 49.8844L37.7727 47.6988L36.7374 45.6282L35.6445 45.8582C34.8002 45.8828 33.9632 45.6957 33.2097 45.3139C32.4563 44.9322 31.8103 44.3679 31.3307 43.6726C30.581 42.7227 30.1755 41.5467 30.1804 40.3366C30.1804 39.8189 30.353 39.3013 30.6405 38.8986C30.9281 38.496 31.3307 38.1509 31.7334 37.9208C32.021 37.6908 32.4236 37.5757 32.7687 37.4607L32.251 36.0803C31.9634 34.8149 31.9634 33.492 32.136 32.2266C32.5126 29.0857 33.7687 26.115 35.7596 23.6566C36.2772 23.0814 36.7949 22.5637 37.4276 22.1611C37.8302 21.931 38.2328 21.8735 38.5779 21.6434C41.0512 20.5506 43.7545 20.2055 46.4578 20.3781Z" fill="#262626"/>
<path d="M45.3068 20.8942C47.6967 20.8053 50.0758 21.2575 52.2664 22.2171C53.5893 22.7922 54.8547 23.655 55.89 24.6903C57.0403 25.8982 57.788 27.3936 58.1907 29.0041L58.5358 31.5924C58.6508 32.9728 58.5358 34.3532 58.4782 35.7336C58.4207 36.5964 58.3057 37.4016 58.3632 38.2644C58.3632 38.4944 58.3632 38.7245 58.4782 38.9546L58.4207 40.1049C58.3057 40.3925 58.3057 40.6801 58.3057 41.0252C58.1907 42.4056 58.1907 43.8436 57.9606 45.2815C57.9031 45.9717 57.788 46.7194 57.5005 47.3521C57.3279 47.8698 57.0403 48.3299 56.6377 48.7325C55.9475 49.4803 55.0847 50.1129 54.1644 50.6306C53.0716 51.2633 51.9213 51.5509 50.8284 52.011C50.5409 52.126 50.2533 52.2411 50.0807 52.4712C50.5409 52.5287 50.9435 52.4712 51.4036 52.3561C51.116 53.0463 51.0585 53.7365 51.0585 54.4267C51.0585 54.7143 51.001 55.0594 51.116 55.347C51.2886 55.6346 51.5762 55.8647 51.8638 56.0372L53.8769 56.785C55.1422 57.2451 56.3501 57.8203 57.6155 58.3379C57.7305 58.568 57.9031 58.7405 57.9606 59.0281C58.3057 59.6608 58.3632 60.351 58.1331 61.0412C57.8456 61.789 57.2704 62.4216 56.5802 62.8243C55.6599 63.457 54.5096 63.9171 53.4167 64.2047C48.9445 65.1602 44.3076 65.0221 39.9002 63.8021C38.7498 63.3994 37.5995 62.9968 36.5642 62.4216C35.7589 61.9615 34.8962 61.3863 34.2635 60.6386C33.9184 60.1785 33.6308 59.5458 33.5733 58.9706C34.9201 58.5595 36.1121 57.7527 36.9942 56.6552C37.8764 55.5576 38.4079 54.22 38.5197 52.8163C38.7498 51.4358 38.7498 49.9979 38.5197 48.6175C38.9799 49.2502 39.5551 49.7678 40.1877 50.1705L41.7407 50.9757C43.9957 51.9485 46.4176 52.4759 48.8729 52.5287H49.5631V52.2986L48.5853 52.011L46.2271 51.5509C44.9042 51.2633 43.5813 50.9757 42.3159 50.458C41.5682 50.1129 40.7629 49.7103 40.0727 49.2502C39.4975 48.7325 38.9799 48.2149 38.5197 47.5822L37.4844 46.0292C37.3119 45.7416 37.1393 45.2815 36.8517 45.0514C36.2766 45.1089 35.7014 45.224 35.1262 45.1089C34.321 44.9939 33.5157 44.7063 32.883 44.1887C31.9639 43.4776 31.2983 42.4893 30.985 41.3703C30.8699 40.7376 30.7549 40.0474 31.0425 39.4722C31.2726 39.0121 31.6752 38.667 32.0778 38.3794C32.5955 38.0343 33.1706 37.8042 33.7458 37.6892C33.9759 37.6317 34.2059 37.6317 34.3785 37.5167L34.321 37.3441L33.6308 37.2866L33.2282 36.4238C32.768 35.1009 32.7105 33.778 32.8255 32.3976C33.1077 29.4981 34.1822 26.7322 35.9315 24.4027C36.5066 23.7125 37.1968 23.0798 37.9446 22.5622C40.2246 21.4045 42.7498 20.8127 45.3068 20.8366V20.8942Z" fill="#FFDECC"/>
<path d="M32.9421 39.7578C33.1721 39.7578 33.3447 39.7578 33.5748 39.8728C33.8624 39.9304 34.2075 40.1029 34.38 40.333C34.495 40.5055 34.495 40.7356 34.38 40.9082C34.0924 41.2533 33.6898 41.4833 33.4597 41.8284C33.8048 42.0585 34.265 42.1735 34.6676 42.3461C34.8977 42.4036 35.1277 42.5186 35.3003 42.6912L35.3578 42.8637L34.8977 42.7487L33.5173 42.3461C33.2872 42.2886 33.0571 42.1735 32.9996 41.9435C32.9421 41.7709 33.0571 41.5408 33.1721 41.3683L34.0349 40.6206C33.8048 40.218 33.1721 40.1604 32.9421 39.7578ZM58.4222 40.1029L58.5373 40.2755L58.6523 41.1957C58.7716 42.902 58.7331 44.6156 58.5373 46.3148C58.4222 46.9475 58.2497 47.6377 57.9621 48.2129C56.4361 50.2095 54.2925 51.6453 51.8653 52.2966C51.8078 53.1018 51.6927 54.0796 51.7502 54.9999L52.0378 55.2875C52.498 55.6326 53.0731 55.8051 53.5908 55.9777C54.9362 56.4072 56.2443 56.9458 57.502 57.5882C57.9046 57.8182 58.2497 58.1058 58.5373 58.4509C58.2497 58.5085 57.9621 58.3934 57.617 58.3359C56.3516 57.8182 55.1438 57.2431 53.8784 56.7829L51.8653 56.0352C51.5777 55.8627 51.2901 55.6326 51.1175 55.345C51.0025 55.0574 51.06 54.7123 51.06 54.4247C51.06 53.7345 51.1175 53.0443 51.4051 52.3541C50.945 52.4691 50.5424 52.5267 50.0822 52.4691C50.2548 52.2391 50.5424 52.124 50.83 52.009C51.9228 51.5489 53.0731 51.2613 54.166 50.6286C55.0862 50.1109 55.949 49.4782 56.6392 48.7305C57.0418 48.3279 57.3294 47.8678 57.502 47.3501C57.7896 46.7174 57.9046 45.9697 57.9621 45.2795C58.1922 43.8415 58.1922 42.4036 58.3072 41.0232C58.3072 40.6781 58.3072 40.3905 58.4222 40.1029Z" fill="#262626"/>
<path d="M56.4655 34.1238C56.9256 34.0662 57.3858 34.1813 57.7309 34.4689C57.9034 34.6414 58.076 34.8715 58.076 35.1015C58.1335 35.3891 57.8459 35.6767 57.5583 35.6767C57.3283 35.6192 57.2132 35.5042 57.0982 35.3316L56.523 34.929C57.0407 35.8493 56.7531 37.1147 55.9478 37.7473C55.5452 38.0924 54.9125 38.2075 54.5099 37.8049C54.1648 37.5173 54.0498 37.1147 54.0498 36.6545C53.9347 36.9421 53.7622 37.1722 53.7047 37.4598C53.6471 37.5748 53.6471 37.6898 53.5321 37.6898C53.4171 37.4022 53.4746 37.0571 53.5896 36.712C53.9347 35.7918 54.5674 34.9865 55.4302 34.5264C55.7178 34.2963 56.0629 34.1813 56.4655 34.1238ZM44.2718 34.7564C45.8248 34.814 47.3202 35.7918 47.9529 37.1722C48.068 37.2872 48.183 37.5173 48.0104 37.6898C47.8379 37.6898 47.7229 37.4598 47.6078 37.3447C47.3778 36.8846 47.0327 36.5395 46.63 36.2519C46.7451 36.8846 46.7451 37.4598 46.4 38.0349C46.1124 38.4951 45.4797 38.7827 44.962 38.7251C44.5594 38.6101 44.1568 38.4376 43.8692 38.0924C43.5241 37.7473 43.4091 37.1722 43.4091 36.712C43.4091 36.3094 43.5816 35.9643 43.7542 35.6767C42.9489 35.8493 42.1437 36.1944 41.511 36.712C41.3384 36.7696 41.2234 36.8846 41.0509 36.8846C40.8208 36.8271 40.7057 36.6545 40.7057 36.4244C40.7057 36.2519 40.8208 36.0793 40.9358 35.9643C41.396 35.6192 41.8561 35.2741 42.4313 35.044C43.0064 34.814 43.6391 34.6989 44.2718 34.7564Z" fill="#262626"/>
<path d="M44.8483 28.6003C45.711 28.6578 46.6888 28.8879 47.379 29.463C47.6091 29.6356 47.8392 29.8657 47.8967 30.0957C47.9542 30.2683 47.9542 30.3833 47.7816 30.4408C47.6091 30.4408 47.4365 30.2683 47.3215 30.1532C46.6888 29.6931 45.9411 29.4055 45.1358 29.4055C44.6757 29.4055 44.2731 29.5206 43.8129 29.6356C42.9502 29.8081 42.1449 30.2683 41.6273 30.9585C41.4547 31.131 41.3397 31.3611 41.0521 31.4186C40.7645 31.4761 40.4769 31.2461 40.4769 30.9585C40.4194 30.7284 40.592 30.4984 40.707 30.3258C41.3972 29.463 42.4325 28.8879 43.5254 28.6578C43.928 28.5428 44.3881 28.5428 44.8483 28.6003ZM56.6393 29.1755C56.9269 29.2905 57.2145 29.5781 57.387 29.8081C57.5596 29.9807 57.6746 30.2108 57.6746 30.4408C57.6746 30.7859 57.3295 31.016 56.9844 30.901C56.6968 30.7859 56.6393 30.4984 56.4092 30.2683C56.1792 30.0957 55.8916 29.8657 55.6615 29.8081C54.9713 29.5781 54.2811 29.8657 53.821 30.3258L53.3033 30.8435C53.3033 30.4408 53.5334 30.0957 53.821 29.8657C54.5112 29.1179 55.6615 28.8303 56.6393 29.1755Z" fill="#262626"/>
<path d="M52.8996 41.7734C52.8996 41.946 52.7846 42.1185 52.6696 42.2911C52.4395 42.6362 52.0369 42.8663 51.6343 42.9813C51.3467 43.0388 51.1166 42.8663 50.8865 42.9813C50.6565 42.9813 50.4264 43.0388 50.1963 42.9238C50.0813 42.8663 50.0813 42.6937 50.1963 42.5787C50.3689 42.3486 50.6565 42.1761 50.8865 42.1761C51.1166 42.1185 51.2892 42.1185 51.4617 42.2911L51.5192 42.6937C51.8068 42.5787 51.9218 42.4061 52.1519 42.2336L52.8996 41.7734Z" fill="#262626"/>
<path d="M45.3648 44.875C45.5374 44.875 45.6524 44.99 45.7675 45.1051L46.5152 45.5077C47.1479 45.7953 47.8381 45.9678 48.4708 46.1404C49.3335 46.428 50.1963 46.4855 51.0591 46.4855C51.7493 46.543 52.382 46.6005 53.0146 46.543L53.2447 46.658C52.2094 47.1757 50.8865 47.2907 49.7362 47.2332C48.4133 47.1757 47.0904 46.7731 45.94 46.1979C45.5949 45.9678 45.1923 45.7378 45.1348 45.2776C45.0773 45.1051 45.1923 44.875 45.3648 44.875Z" fill="#262626"/>
<path d="M47.2057 19.5746C49.1349 19.6849 51.0268 20.153 52.7848 20.955C53.5901 21.3576 54.4528 21.7602 55.2006 22.2779C55.6607 22.5655 56.1208 22.9106 56.466 23.3132L57.7313 24.7511C57.2137 24.9812 56.696 24.9237 56.1784 24.8662C55.2006 24.7511 54.2228 24.6361 53.245 24.6936L52.7848 24.6361L52.3822 24.3485L51.692 23.8884C51.692 24.1184 51.6345 24.291 51.5195 24.5211C51.4044 24.6361 51.2894 24.6936 51.1168 24.6936C50.8868 24.6361 50.7142 24.5211 50.4842 24.5211C47.5234 24.0847 44.5107 24.143 41.569 24.6936H40.9363L39.901 24.3485C39.9585 24.8662 40.131 25.3838 40.0735 25.844C40.016 26.074 40.016 26.3041 39.901 26.4766C39.4983 27.2819 39.0382 28.0296 38.6931 28.8924C38.2905 29.8702 37.9454 30.9055 37.7153 31.9408C37.7153 32.0558 37.6578 32.1709 37.5428 32.2284L36.8526 32.3434C37.1401 32.8611 37.1977 33.4938 37.1401 34.0689C37.0826 34.7591 36.9676 35.5644 36.6225 36.1395C37.0251 36.6572 37.1977 37.3474 37.1977 38.0376C37.2552 39.1304 37.1977 40.1658 36.795 41.2011C36.68 41.4311 36.5074 41.7187 36.2199 41.8338C36.1623 41.8913 35.9898 41.8913 35.9898 41.7762C35.8748 41.5462 35.8748 41.2586 35.8172 41.0285C35.7022 40.1658 35.2996 39.3605 34.6669 38.7278C34.2068 38.3252 33.6891 37.9226 33.1714 37.635C32.8263 37.52 32.5388 37.4049 32.2512 37.1749L31.9061 36.7147C31.2159 34.8742 30.9858 32.8611 31.2159 30.9055C31.4604 28.6135 32.1855 26.3988 33.344 24.406C33.9192 23.4857 34.6094 22.6805 35.3571 21.9328C35.9323 21.4151 36.5074 20.955 37.1401 20.6099L37.9454 20.3223L39.7859 19.6896L40.8788 19.5746H43.352C44.6749 19.5746 45.8828 19.4595 47.2057 19.5746Z" fill="#262626"/>
</g>
</svg>
