<svg width="90" height="62" viewBox="0 0 90 62" fill="none" xmlns="http://www.w3.org/2000/svg">
<mask id="path-1-outside-1_1_1390" maskUnits="userSpaceOnUse" x="0" y="0" width="92" height="62" fill="black">
<rect fill="white" width="92" height="62"/>
<path d="M2 0H90V62H2V0Z"/>
</mask>
<path d="M2 0H90V62H2V0Z" fill="#FFEFE6"/>
<path d="M90 0H88V62H90H92V0H90ZM2 62H4V0H2H0V62H2Z" fill="#262626" mask="url(#path-1-outside-1_1_1390)"/>
<path fill-rule="evenodd" clip-rule="evenodd" d="M35.5 24.875C35.5 24.3918 35.8918 24 36.375 24H55.625C56.1082 24 56.5 24.3918 56.5 24.875C56.5 25.3582 56.1082 25.75 55.625 25.75H36.375C35.8918 25.75 35.5 25.3582 35.5 24.875ZM35.5 31C35.5 30.5168 35.8918 30.125 36.375 30.125H55.625C56.1082 30.125 56.5 30.5168 56.5 31C56.5 31.4832 56.1082 31.875 55.625 31.875H36.375C35.8918 31.875 35.5 31.4832 35.5 31ZM45.125 37.125C45.125 36.6418 45.5168 36.25 46 36.25H55.625C56.1082 36.25 56.5 36.6418 56.5 37.125C56.5 37.6082 56.1082 38 55.625 38H46C45.5168 38 45.125 37.6082 45.125 37.125Z" fill="#262626"/>
</svg>
